<svg xmlns="http://www.w3.org/2000/svg" viewBox="0 0 920 560" font-family="Segoe UI, Arial, sans-serif">
  <defs>
    <filter id="shadow" x="-5%" y="-5%" width="110%" height="115%">
      <feDropShadow dx="0" dy="2" stdDeviation="3" flood-opacity="0.18"/>
    </filter>
  </defs>

  <rect x="10" y="10" width="900" height="540" rx="6" fill="#ffffff" stroke="#d0d7de" filter="url(#shadow)"/>

  <!-- Window chrome -->
  <rect x="10" y="10" width="900" height="32" rx="6" fill="#0d4ba1"/>
  <rect x="10" y="30" width="900" height="12" fill="#0d4ba1"/>
  <circle cx="28" cy="26" r="5" fill="#ff5f57"/>
  <circle cx="44" cy="26" r="5" fill="#febc2e"/>
  <circle cx="60" cy="26" r="5" fill="#28c840"/>
  <text x="82" y="30" fill="#ffffff" font-size="13" font-weight="600">dashboard.xlsx — Summary</text>

  <!-- Title (merged A1:H1) -->
  <rect x="30" y="58" width="860" height="40" fill="#0d4ba1"/>
  <text x="460" y="84" font-size="20" font-weight="700" fill="#ffffff" text-anchor="middle">Q3 Executive Dashboard</text>

  <!-- KPI tiles -->
  <!-- Tile 1 Revenue (green) -->
  <rect x="40"  y="120" width="200" height="30" fill="#1a7f37"/>
  <text x="140" y="140" font-size="12" fill="#ffffff" font-weight="700" text-anchor="middle">REVENUE</text>
  <rect x="40"  y="150" width="200" height="62" fill="#d9d9d9" stroke="#24292f" stroke-width="1.5"/>
  <text x="140" y="190" font-size="22" fill="#24292f" font-weight="700" text-anchor="middle">$1,248,500</text>

  <!-- Tile 2 Orders (blue) -->
  <rect x="255" y="120" width="200" height="30" fill="#2d6cdf"/>
  <text x="355" y="140" font-size="12" fill="#ffffff" font-weight="700" text-anchor="middle">ORDERS</text>
  <rect x="255" y="150" width="200" height="62" fill="#d9d9d9" stroke="#24292f" stroke-width="1.5"/>
  <text x="355" y="190" font-size="22" fill="#24292f" font-weight="700" text-anchor="middle">4,812</text>

  <!-- Tile 3 New Customers (orange) -->
  <rect x="470" y="120" width="200" height="30" fill="#bc4c00"/>
  <text x="570" y="140" font-size="12" fill="#ffffff" font-weight="700" text-anchor="middle">NEW CUSTOMERS</text>
  <rect x="470" y="150" width="200" height="62" fill="#d9d9d9" stroke="#24292f" stroke-width="1.5"/>
  <text x="570" y="190" font-size="22" fill="#24292f" font-weight="700" text-anchor="middle">1,203</text>

  <!-- Tile 4 Return Rate (red) -->
  <rect x="685" y="120" width="200" height="30" fill="#cf222e"/>
  <text x="785" y="140" font-size="12" fill="#ffffff" font-weight="700" text-anchor="middle">RETURN RATE</text>
  <rect x="685" y="150" width="200" height="62" fill="#d9d9d9" stroke="#24292f" stroke-width="1.5"/>
  <text x="785" y="190" font-size="22" fill="#24292f" font-weight="700" text-anchor="middle">2.4%</text>

  <!-- Highlights -->
  <text x="40" y="248" font-size="13" fill="#24292f" font-weight="700">Highlights</text>
  <text x="40" y="268" font-size="12" fill="#24292f">• Widget Pro led revenue at $18,375</text>
  <text x="40" y="286" font-size="12" fill="#24292f">• North region grew 12.4% QoQ</text>
  <text x="40" y="304" font-size="12" fill="#24292f">• Legacy Kit flagged for review</text>

  <!-- Simple bar chart (simulated) -->
  <g>
    <text x="500" y="248" font-size="13" fill="#24292f" font-weight="700">Revenue by Product</text>
    <rect x="500" y="260" width="160" height="18" fill="#2d6cdf"/>
    <rect x="500" y="282" width="220" height="18" fill="#2d6cdf"/>
    <rect x="500" y="304" width="78" height="18" fill="#2d6cdf"/>
    <rect x="500" y="326" width="55" height="18" fill="#2d6cdf"/>
    <rect x="500" y="348" width="270" height="18" fill="#2d6cdf"/>
    <text x="495" y="273" font-size="11" fill="#57606a" text-anchor="end">Widget Pro</text>
    <text x="495" y="295" font-size="11" fill="#57606a" text-anchor="end">Gadget Max</text>
    <text x="495" y="317" font-size="11" fill="#57606a" text-anchor="end">Contraption</text>
    <text x="495" y="339" font-size="11" fill="#57606a" text-anchor="end">Gizmo Lite</text>
    <text x="495" y="361" font-size="11" fill="#57606a" text-anchor="end">Flagship X</text>
    <text x="670" y="273" font-size="10" fill="#24292f">$18.4k</text>
    <text x="730" y="295" font-size="10" fill="#24292f">$24.9k</text>
    <text x="588" y="317" font-size="10" fill="#24292f">$9.5k</text>
    <text x="565" y="339" font-size="10" fill="#24292f">$6.2k</text>
    <text x="780" y="361" font-size="10" fill="#24292f">$31.2k</text>
  </g>

  <!-- Sheet tabs -->
  <rect x="10" y="510" width="900" height="30" fill="#f6f8fa" stroke="#d0d7de"/>
  <rect x="20" y="512" width="100" height="28" fill="#ffffff" stroke="#d0d7de"/>
  <text x="70" y="530" font-size="12" fill="#0d4ba1" font-weight="700" text-anchor="middle">Summary</text>
  <rect x="120" y="512" width="110" height="28" fill="#f6f8fa" stroke="#d0d7de"/>
  <text x="175" y="530" font-size="12" fill="#24292f" text-anchor="middle">TopProducts</text>
  <rect x="230" y="512" width="100" height="28" fill="#f6f8fa" stroke="#d0d7de"/>
  <text x="280" y="530" font-size="12" fill="#24292f" text-anchor="middle">RawData</text>

  <!-- Code callout -->
  <rect x="40" y="390" width="840" height="100" rx="6" fill="#fff" stroke="#d0d7de"/>
  <text x="56" y="410" font-size="12" fill="#24292f" font-weight="700">examples/DashboardExample.java</text>
  <text x="56" y="430" font-size="11" fill="#57606a" font-family="Consolas, monospace">kpiTile(sh, 3, 1, "REVENUE", "$1,248,500", "#1a7f37");</text>
  <text x="56" y="446" font-size="11" fill="#57606a" font-family="Consolas, monospace">ReportBuilder.on(topProductsSheet)</text>
  <text x="56" y="462" font-size="11" fill="#57606a" font-family="Consolas, monospace">    .title("Top Products by Revenue").rowsFromBeans(data)</text>
  <text x="56" y="478" font-size="11" fill="#57606a" font-family="Consolas, monospace">    .zebraStripes(true).freezeHeader(true).autoFilter(true).render();</text>
</svg>
